<svg height="600" width="600" xmlns="http://www.w3.org/2000/svg" xmlns:svg="http://www.w3.org/2000/svg" xmlns:xlink="http://www.w3.org/1999/xlink">
	<line stroke="black" stroke-width="1" x1="0" x2="600" y1="0" y2="0" />
	<line stroke="black" stroke-width="1" x1="0" x2="600" y1="60" y2="60" />
	<line stroke="black" stroke-width="1" x1="0" x2="600" y1="120" y2="120" />
	<line stroke="black" stroke-width="1" x1="0" x2="600" y1="180" y2="180" />
	<line stroke="black" stroke-width="1" x1="0" x2="600" y1="240" y2="240" />
	<line stroke="black" stroke-width="1" x1="0" x2="600" y1="300" y2="300" />
	<line stroke="black" stroke-width="1" x1="0" x2="600" y1="360" y2="360" />
	<line stroke="black" stroke-width="1" x1="0" x2="600" y1="420" y2="420" />
	<line stroke="black" stroke-width="1" x1="0" x2="600" y1="480" y2="480" />
	<line stroke="black" stroke-width="1" x1="0" x2="600" y1="540" y2="540" />
	<line stroke="black" stroke-width="1" x1="0" x2="600" y1="600" y2="600" />
	<line stroke="black" stroke-width="1" x1="0" x2="0" y1="0" y2="600" />
	<line stroke="black" stroke-width="1" x1="60" x2="60" y1="0" y2="600" />
	<line stroke="black" stroke-width="1" x1="120" x2="120" y1="0" y2="600" />
	<line stroke="black" stroke-width="1" x1="180" x2="180" y1="0" y2="600" />
	<line stroke="black" stroke-width="1" x1="240" x2="240" y1="0" y2="600" />
	<line stroke="black" stroke-width="1" x1="300" x2="300" y1="0" y2="600" />
	<line stroke="black" stroke-width="1" x1="360" x2="360" y1="0" y2="600" />
	<line stroke="black" stroke-width="1" x1="420" x2="420" y1="0" y2="600" />
	<line stroke="black" stroke-width="1" x1="480" x2="480" y1="0" y2="600" />
	<line stroke="black" stroke-width="1" x1="540" x2="540" y1="0" y2="600" />
	<line stroke="black" stroke-width="1" x1="600" x2="600" y1="0" y2="600" />
	<rect fill="red" height="60" width="60" x="0" y="0" />
	<rect fill="red" height="60" width="60" x="60" y="60" />
	<rect fill="red" height="60" width="60" x="120" y="120" />
	<rect fill="red" height="60" width="60" x="180" y="180" />
	<rect fill="red" height="60" width="60" x="240" y="240" />
	<rect fill="red" height="60" width="60" x="300" y="300" />
	<rect fill="red" height="60" width="60" x="360" y="360" />
	<rect fill="red" height="60" width="60" x="420" y="420" />
	<rect fill="red" height="60" width="60" x="480" y="480" />
	<rect fill="red" height="60" width="60" x="540" y="540" />
</svg>