<svg baseProfile="full" height="240" version="1.1" width="440" xmlns="http://www.w3.org/2000/svg" xmlns:ev="http://www.w3.org/2001/xml-events" xmlns:xlink="http://www.w3.org/1999/xlink"><defs /><line fill="white" stroke="black" stroke-width="2" x1="0" x2="440" y1="220" y2="220" /><polyline fill="white" points="430,230 440,220 430,210" stroke="black" stroke-width="2" /><text x="390" y="232">time</text><line fill="white" stroke="black" stroke-width="2" x1="20" x2="20" y1="240" y2="20" /><polyline fill="white" points="10,30 20,20 30,30" stroke="black" stroke-width="2" /><text transform="translate(0) rotate(-90, 17, 70)" x="17" y="70">value</text><polyline fill="white" points="20,216 85,216 85,176 150,176 150,136 215,136 215,96 280,96 280,56 360,56 360,20 420,20" stroke="black" stroke-width="5" /><polygon fill="rgb(66,244,86)" points="87,218 87,178 152,178 152,138 217,138 217,98 282,98 282,58 362,58 362,22 422,22 422,218" /></svg>