<svg baseProfile="full" height="260" version="1.1" width="440" xmlns="http://www.w3.org/2000/svg" xmlns:ev="http://www.w3.org/2001/xml-events" xmlns:xlink="http://www.w3.org/1999/xlink"><defs /><line fill="white" stroke="black" stroke-width="2" x1="0" x2="440" y1="240" y2="240" /><polyline fill="white" points="430,250 440,240 430,230" stroke="black" stroke-width="2" /><text x="390" y="252">time</text><line fill="white" stroke="black" stroke-width="2" x1="20" x2="20" y1="260" y2="20" /><polyline fill="white" points="10,30 20,20 30,30" stroke="black" stroke-width="2" /><text transform="translate(0) rotate(-90, 17, 70)" x="17" y="70">value</text><polyline fill="white" points="20,236 85,236 85,196 150,196 150,156 215,156 215,116 280,116 280,76 360,76 360,20 425,20" stroke="black" stroke-width="4" /><polygon fill="rgb(66,244,86)" points="87,238 87,198 152,198 152,158 217,158 217,118 282,118 282,78 362,78 362,22 425,22 425,238" /></svg>